<svg width="15" height="14" viewBox="0 0 15 14" fill="#55B5E7" xmlns="http://www.w3.org/2000/svg">
    <path d="M4.7 5.25464C4.3 4.85464 3.7 4.85464 3.3 5.25464C2.9 5.65464 2.9 6.25464 3.3 6.65464L7 10.4546L14.7 1.65464C15.1 1.25464 15 0.65464 14.6 0.25464C14.2 -0.14536 13.6 -0.0453602 13.2 0.35464L12.9 0.75464C12.4 0.25464 11.7 0.0546398 10.9 0.0546398H3.1C1.4 -0.0453602 0 1.35464 0 3.05464V10.9546C0 12.5546 1.4 13.9546 3.1 13.9546H11C12.7 13.9546 14.1 12.5546 14.1 10.8546V4.65464L12.1 6.95464V10.9546C12.1 11.5546 11.6 12.0546 11 12.0546H3.1C2.5 11.9546 2 11.4546 2 10.8546V3.05464C2 2.45464 2.5 1.95464 3.1 1.95464H11C11.3 1.95464 11.5 2.05464 11.7 2.15464L7 7.45464L4.7 5.25464Z" />
</svg>
